<svg xmlns="http://www.w3.org/2000/svg" width="25.607" height="24.549" viewBox="0 0 25.607 24.549"><defs><style>.a{fill:#e6e6e6;}</style></defs><path class="a" d="M23.916,14.444l5.534.8A1.913,1.913,0,0,1,30.514,18.5l-4,3.907a1.913,1.913,0,0,0-.548,1.694l.952,5.51a1.913,1.913,0,0,1-2.773,2.02l-4.952-2.6a1.913,1.913,0,0,0-1.78,0l-4.946,2.608a1.913,1.913,0,0,1-2.778-2.013l.939-5.512a1.913,1.913,0,0,0-.552-1.693l-4.008-3.9a1.913,1.913,0,0,1,1.056-3.264l5.532-.811a1.912,1.912,0,0,0,1.439-1.048l2.469-5.017a1.913,1.913,0,0,1,3.431,0l2.48,5.011A1.913,1.913,0,0,0,23.916,14.444Z" transform="translate(-5.486 -7.324)"/></svg>