<svg xmlns="http://www.w3.org/2000/svg" width="24.13" height="23.484" viewBox="0 0 24.13 23.484"><g transform="translate(0 -6.028)"><g transform="translate(0 6.028)"><path d="M99.172,350.322a2.519,2.519,0,1,0,2.519,2.519A2.519,2.519,0,0,0,99.172,350.322Zm0,3.919a1.4,1.4,0,1,1,1.4-1.4A1.4,1.4,0,0,1,99.172,354.241Z" transform="translate(-91.475 -331.876)"/><path d="M297.7,350.322a2.519,2.519,0,1,0,2.519,2.519A2.519,2.519,0,0,0,297.7,350.322Zm0,3.919a1.4,1.4,0,1,1,1.4-1.4A1.4,1.4,0,0,1,297.7,354.241Z" transform="translate(-279.369 -331.876)"/><path d="M24.016,9.779a.7.7,0,0,0-.448-.224L5.346,9.3l-.5-1.539A2.575,2.575,0,0,0,2.435,6.028H.56a.56.56,0,0,0,0,1.12H2.435a1.456,1.456,0,0,1,1.344.98l3.555,10.72-.28.644a2.687,2.687,0,0,0,.252,2.435A2.6,2.6,0,0,0,9.4,23.1H20.293a.56.56,0,1,0,0-1.12H9.4a1.428,1.428,0,0,1-1.176-.672,1.539,1.539,0,0,1-.14-1.344l.224-.5L20.1,18.232a3.079,3.079,0,0,0,2.659-2.351L24.1,10.254A.476.476,0,0,0,24.016,9.779Zm-2.351,5.85a1.9,1.9,0,0,1-1.707,1.483l-11.644,1.2-2.6-7.893,17.158.252Z" transform="translate(0 -6.028)"/></g></g></svg>